<?xml version="1.0"?>
<svg xmlns="http://www.w3.org/2000/svg" height="512px" viewBox="0 -24 448 448" width="512px" class=""><g><g><path d="m136 176c-.035156-34.472656 20.066406-65.792969 51.421875-80.121094 31.355469-14.332031 68.1875-9.03125 94.234375 13.554688 26.042969 22.585937 36.5 58.300781 26.75 91.367187.890625-.375 1.832031-.640625 2.730469-.992187 2.199219-.863282 4.414062-1.703125 6.671875-2.402344 1.535156-.484375 3.085937-.910156 4.648437-1.335938 1.269531-.34375 2.496094-.796874 3.78125-1.085937 1.175781-6.261719 1.765625-12.617187 1.761719-18.984375 0-57.4375-46.5625-104-104-104s-104 46.5625-104 104 46.5625 104 104 104c6.375.007812 12.734375-.582031 19-1.761719.304688-1.277343.734375-2.503906 1.078125-3.757812.433594-1.601563.867187-3.199219 1.363281-4.738281.710938-2.207032 1.535156-4.375 2.398438-6.527344.367187-.925782.640625-1.886719 1.023437-2.808594-26.609375 7.839844-55.355469 2.671875-77.566406-13.941406-22.214844-16.613282-35.292969-42.726563-35.296875-70.464844zm0 0" data-original="#848484" class="" data-old_color="#848484" fill="#BCBCBC"/><path d="m352 208c-5.875-.023438-11.738281.511719-17.511719 1.601562-14.089843 2.578126-27.414062 8.320313-38.960937 16.796876-.234375.183593-.484375.347656-.742188.488281-3.796875 2.804687-7.378906 5.886719-10.714844 9.226562-.671874.671875-1.207031 1.472657-1.855468 2.160157-2.617188 2.707031-5.070313 5.566406-7.351563 8.566406-.125.222656-.261719.4375-.414062.640625-8.492188 11.527343-14.253907 24.835937-16.847657 38.917969-1.097656 5.804687-1.632812 11.695312-1.601562 17.601562 0 53.019531 42.980469 96 96 96s96-42.980469 96-96-42.980469-96-96-96zm72 96c0 4.417969-3.582031 8-8 8h-56v56c0 4.417969-3.582031 8-8 8s-8-3.582031-8-8v-56h-56c-4.417969 0-8-3.582031-8-8s3.582031-8 8-8h56v-56c0-4.417969 3.582031-8 8-8s8 3.582031 8 8v56h56c4.417969 0 8 3.582031 8 8zm0 0" data-original="#848484" class="" data-old_color="#848484" fill="#BCBCBC"/><path d="m376 32h32v8h-32zm0 0" data-original="#848484" class="" data-old_color="#848484" fill="#BCBCBC"/><path d="m40 24h48v16h-48zm0 0" data-original="#848484" class="" data-old_color="#848484" fill="#BCBCBC"/><path d="m262.945312 236.214844c6.078126-8.03125 13.238282-15.191406 21.269532-21.269532.257812-.191406.472656-.441406.738281-.632812 19.503906-31.027344 12.589844-71.753906-16.0625-94.605469-28.648437-22.851562-69.894531-20.539062-95.808594 5.375-25.914062 25.914063-28.226562 67.160157-5.375 95.808594 22.851563 28.652344 63.578125 35.566406 94.605469 16.0625.191406-.265625.441406-.480469.632812-.738281zm0 0" data-original="#848484" class="" data-old_color="#848484" fill="#BCBCBC"/><path d="m424 56h-88c-2.863281.003906-5.511719-1.519531-6.945312-4l-22.796876-39.839844c-4.253906-7.496094-12.199218-12.1367185-20.816406-12.160156h-122.882812c-8.601563.015625-16.539063 4.636719-20.796875 12.113281l-22.816407 39.886719c-1.433593 2.480469-4.082031 4.003906-6.945312 4h-88c-13.253906 0-24 10.746094-24 24v224c0 13.253906 10.746094 24 24 24h218.585938c-.128907-.601562-.179688-1.214844-.296876-1.816406-.535156-2.746094-.984374-5.507813-1.351562-8.289063-.121094-1.015625-.257812-2.03125-.351562-3.054687-.355469-3.59375-.585938-7.199219-.585938-10.839844 0-3.144531.175781-6.214844.425781-9.257812-5.441406.804687-10.929687 1.222656-16.425781 1.257812-66.273438 0-120-53.726562-120-120s53.726562-120 120-120 120 53.726562 120 120c-.035156 5.496094-.453125 10.980469-1.246094 16.414062 3.03125-.238281 6.101563-.414062 9.246094-.414062 3.433594 0 6.816406.207031 10.175781.511719l2.457031.25c3.3125.375 6.582032.847656 9.800782 1.503906l.566406.132813c3.0625.640624 6.0625 1.441406 9.023438 2.328124.800781.226563 1.535156.457032 2.304687.707032 3.0625.992187 6.078125 2.070312 9.023437 3.308594.304688.128906.601563.28125.914063.417968 2.6875 1.160156 5.308594 2.398438 7.886719 3.800782.703125.375 1.398437.742187 2.085937 1.128906 2.761719 1.527344 5.457031 3.148437 8.066407 4.902344.367187.238281.710937.511718 1.078124.800781 2.3125 1.597656 4.554688 3.277343 6.730469 5.03125.605469.488281 1.214844.976562 1.816407 1.472656 2.398437 2.015625 4.710937 4.101563 6.925781 6.304687.367187.359376.710937.75 1.074219 1.117188 1.917968 1.960938 3.765624 4 5.542968 6.097656.488282.574219.976563 1.144532 1.457032 1.726563 1.972656 2.402343 3.855468 4.929687 5.597656 7.527343.3125.457032.601562.9375.90625 1.402344.855468 1.296875 1.726562 2.582032 2.535156 3.917969v-166.390625c0-13.242188-10.726562-23.980469-23.96875-24zm-352 224c0 4.417969-3.582031 8-8 8s-8-3.582031-8-8v-192c0-4.417969 3.582031-8 8-8s8 3.582031 8 8zm312-160c-13.253906 0-24-10.746094-24-24s10.746094-24 24-24 24 10.746094 24 24-10.746094 24-24 24zm0 0" data-original="#848484" class="" data-old_color="#848484" fill="#BCBCBC"/><path d="m392 96c0 4.417969-3.582031 8-8 8s-8-3.582031-8-8 3.582031-8 8-8 8 3.582031 8 8zm0 0" data-original="#848484" class="" data-old_color="#848484" fill="#BCBCBC"/></g></g> </svg>
