<?xml version="1.0"?>
<svg xmlns="http://www.w3.org/2000/svg" height="512px" viewBox="0 0 512 512" width="512px" class=""><g><path d="m256 164c-23.378906 0-42.398438 19.019531-42.398438 42.398438 0 23.378906 19.019532 42.398437 42.398438 42.398437s42.398438-19.019531 42.398438-42.398437c0-23.378907-19.019532-42.398438-42.398438-42.398438zm0 0" data-original="#000000" class="active-path" data-old_color="#000000" fill="#F900FF"/><path d="m339.589844 339.253906c0-33.335937-27.121094-60.457031-60.457032-60.457031h-46.265624c-33.335938 0-60.457032 27.121094-60.457032 60.457031v48.71875c24.191406 15.375 52.867188 24.292969 83.589844 24.292969s59.398438-8.917969 83.585938-24.292969v-48.71875zm0 0" data-original="#000000" class="active-path" data-old_color="#000000" fill="#F900FF"/><path d="m256 99.734375c-86.164062 0-156.265625 70.101563-156.265625 156.265625 0 41.460938 16.238281 79.195312 42.675781 107.195312v-23.941406c0-38.960937 24.761719-72.246094 59.371094-84.953125-11.300781-12.773437-18.179688-29.546875-18.179688-47.902343 0-39.921876 32.476563-72.398438 72.398438-72.398438s72.398438 32.476562 72.398438 72.398438c0 18.355468-6.878907 35.128906-18.179688 47.902343 34.609375 12.707031 59.371094 45.992188 59.371094 84.953125v23.941406c26.4375-28 42.671875-65.734374 42.671875-107.195312.003906-86.164062-70.097657-156.265625-156.261719-156.265625zm0 0" data-original="#000000" class="active-path" data-old_color="#000000" fill="#F900FF"/><path d="m437.019531 74.980469c-48.351562-48.351563-112.640625-74.980469-181.019531-74.980469s-132.667969 26.628906-181.019531 74.980469c-48.351563 48.351562-74.980469 112.640625-74.980469 181.019531s26.628906 132.667969 74.980469 181.019531c48.351562 48.351563 112.640625 74.980469 181.019531 74.980469s132.667969-26.628906 181.019531-74.980469c48.351563-48.351562 74.980469-112.640625 74.980469-181.019531s-26.628906-132.667969-74.980469-181.019531zm-181.019531 367.285156c-102.707031 0-186.265625-83.558594-186.265625-186.265625s83.558594-186.265625 186.265625-186.265625 186.265625 83.558594 186.265625 186.265625-83.558594 186.265625-186.265625 186.265625zm0 0" data-original="#000000" class="active-path" data-old_color="#000000" fill="#F900FF"/></g> </svg>
